<svg viewBox="0 0 16 16" width="16px" height="16px"><style type="text/css">.st0{fill:#A6A6A6;}.st1{fill:#7E7E7E;}</style><path class="st0" d="m6.4 10.7h0.7v2.7c0 0.4-0.3 0.7-0.7 0.7h-1.3c-0.4 0-0.7-0.3-0.7-0.7v-2.7h-2.7c-0.5 0-0.8-0.6-0.6-1l4.1-7.4c0.3-0.5 0.9-0.5 1.2 0l1.6 3.3-2.2 4.1c-0.2 0.5 0.1 1 0.6 1z"/><path class="st1" d="m14.3 10.7h-2.7v2.7c0 0.4-0.3 0.7-0.7 0.7h-1.3c-0.4 0-0.7-0.3-0.7-0.7v-2.7h0.7c0.5 0 0.8-0.6 0.6-1l-2.2-4.1 1.7-3.3c0.3-0.5 0.9-0.5 1.2 0l4.1 7.4c0.2 0.5-0.2 1-0.7 1z"/></svg>